<svg width="200" height="70" viewBox="0 0 200 70" xmlns="http://www.w3.org/2000/svg">
  <!-- EDUCORE AI Logo - Light version (dark green on white background) -->
  
  <defs>
    <!-- Green gradient for swirling petals -->
    <linearGradient id="petalGrad1" x1="0%" y1="0%" x2="100%" y2="100%">
      <stop offset="0%" style="stop-color:#86efac;stop-opacity:1" />
      <stop offset="50%" style="stop-color:#4ade80;stop-opacity:1" />
      <stop offset="100%" style="stop-color:#22c55e;stop-opacity:1" />
    </linearGradient>
    <linearGradient id="petalGrad2" x1="0%" y1="0%" x2="100%" y2="100%">
      <stop offset="0%" style="stop-color:#4ade80;stop-opacity:1" />
      <stop offset="50%" style="stop-color:#22c55e;stop-opacity:1" />
      <stop offset="100%" style="stop-color:#16a34a;stop-opacity:1" />
    </linearGradient>
    <linearGradient id="petalGrad3" x1="0%" y1="0%" x2="100%" y2="100%">
      <stop offset="0%" style="stop-color:#22c55e;stop-opacity:1" />
      <stop offset="50%" style="stop-color:#16a34a;stop-opacity:1" />
      <stop offset="100%" style="stop-color:#15803d;stop-opacity:1" />
    </linearGradient>
    <!-- Highlight for glossy effect -->
    <radialGradient id="petalHighlight" cx="30%" cy="30%">
      <stop offset="0%" style="stop-color:#ffffff;stop-opacity:0.6" />
      <stop offset="100%" style="stop-color:#86efac;stop-opacity:0" />
    </radialGradient>
    <!-- Central glow -->
    <radialGradient id="centerGlow" cx="50%" cy="50%">
      <stop offset="0%" style="stop-color:#f0fdf4;stop-opacity:0.8" />
      <stop offset="100%" style="stop-color:#1e293b;stop-opacity:1" />
    </radialGradient>
  </defs>
  
  <!-- Logo container centered -->
  <g transform="translate(100, 20)">
    
    <!-- Swirling petal-like shapes creating circular motion -->
    <!-- Outer petals -->
    <ellipse cx="0" cy="-12" rx="8" ry="12" fill="url(#petalGrad1)" opacity="0.9" transform="rotate(-45 0 0)"/>
    <ellipse cx="8.5" cy="-8.5" rx="8" ry="12" fill="url(#petalGrad2)" opacity="0.9" transform="rotate(-20 0 0)"/>
    <ellipse cx="12" cy="0" rx="8" ry="12" fill="url(#petalGrad3)" opacity="0.9"/>
    <ellipse cx="8.5" cy="8.5" rx="8" ry="12" fill="url(#petalGrad2)" opacity="0.9" transform="rotate(20 0 0)"/>
    <ellipse cx="0" cy="12" rx="8" ry="12" fill="url(#petalGrad1)" opacity="0.9" transform="rotate(45 0 0)"/>
    <ellipse cx="-8.5" cy="8.5" rx="8" ry="12" fill="url(#petalGrad2)" opacity="0.9" transform="rotate(70 0 0)"/>
    <ellipse cx="-12" cy="0" rx="8" ry="12" fill="url(#petalGrad3)" opacity="0.9"/>
    <ellipse cx="-8.5" cy="-8.5" rx="8" ry="12" fill="url(#petalGrad2)" opacity="0.9" transform="rotate(-70 0 0)"/>
    
    <!-- Middle layer petals -->
    <ellipse cx="0" cy="-8" rx="6" ry="10" fill="url(#petalGrad2)" opacity="0.8" transform="rotate(-30 0 0)"/>
    <ellipse cx="6.9" cy="-4" rx="6" ry="10" fill="url(#petalGrad3)" opacity="0.8" transform="rotate(-10 0 0)"/>
    <ellipse cx="8" cy="0" rx="6" ry="10" fill="url(#petalGrad2)" opacity="0.8"/>
    <ellipse cx="6.9" cy="4" rx="6" ry="10" fill="url(#petalGrad3)" opacity="0.8" transform="rotate(10 0 0)"/>
    <ellipse cx="0" cy="8" rx="6" ry="10" fill="url(#petalGrad2)" opacity="0.8" transform="rotate(30 0 0)"/>
    <ellipse cx="-6.9" cy="4" rx="6" ry="10" fill="url(#petalGrad3)" opacity="0.8" transform="rotate(50 0 0)"/>
    <ellipse cx="-8" cy="0" rx="6" ry="10" fill="url(#petalGrad2)" opacity="0.8"/>
    <ellipse cx="-6.9" cy="-4" rx="6" ry="10" fill="url(#petalGrad3)" opacity="0.8" transform="rotate(-50 0 0)"/>
    
    <!-- Highlights on petals for glossy effect -->
    <ellipse cx="2" cy="-10" rx="4" ry="6" fill="url(#petalHighlight)" opacity="0.5" transform="rotate(-45 0 0)"/>
    <ellipse cx="6" cy="-6" rx="4" ry="6" fill="url(#petalHighlight)" opacity="0.5" transform="rotate(-20 0 0)"/>
    <ellipse cx="8" cy="2" rx="4" ry="6" fill="url(#petalHighlight)" opacity="0.5"/>
    
    <!-- Central dark circle with white E -->
    <circle cx="0" cy="0" r="10" fill="url(#centerGlow)"/>
    <circle cx="0" cy="0" r="8" fill="#1e293b"/>
    <text x="0" y="4" font-family="Arial, sans-serif" font-size="14" font-weight="bold" fill="#f8fafc" text-anchor="middle">E</text>
    
  </g>
  
  <!-- EDUCORE AI text below logo -->
  <text x="100" y="55" font-family="Arial, sans-serif" font-size="13" font-weight="600" fill="#065f46" text-anchor="middle" letter-spacing="2px">
    EDUCORE AI
  </text>
</svg>
