<svg width="200" height="70" viewBox="0 0 200 70" xmlns="http://www.w3.org/2000/svg">
  <!-- EDUCORE AI Logo - Dark version (white/teal on dark background) -->
  
  <defs>
    <!-- Teal/cyan gradient for swirling strands -->
    <linearGradient id="strandGrad1" x1="0%" y1="0%" x2="100%" y2="100%">
      <stop offset="0%" style="stop-color:#5eead4;stop-opacity:1" />
      <stop offset="50%" style="stop-color:#2dd4bf;stop-opacity:1" />
      <stop offset="100%" style="stop-color:#14b8a6;stop-opacity:1" />
    </linearGradient>
    <linearGradient id="strandGrad2" x1="0%" y1="0%" x2="100%" y2="100%">
      <stop offset="0%" style="stop-color:#2dd4bf;stop-opacity:1" />
      <stop offset="50%" style="stop-color:#14b8a6;stop-opacity:1" />
      <stop offset="100%" style="stop-color:#0d9488;stop-opacity:1" />
    </linearGradient>
    <linearGradient id="strandGrad3" x1="0%" y1="0%" x2="100%" y2="100%">
      <stop offset="0%" style="stop-color:#14b8a6;stop-opacity:1" />
      <stop offset="50%" style="stop-color:#0d9488;stop-opacity:1" />
      <stop offset="100%" style="stop-color:#047857;stop-opacity:1" />
    </linearGradient>
    <!-- Metallic highlight for glossy effect -->
    <radialGradient id="strandHighlight" cx="30%" cy="30%">
      <stop offset="0%" style="stop-color:#ffffff;stop-opacity:0.7" />
      <stop offset="100%" style="stop-color:#5eead4;stop-opacity:0" />
    </radialGradient>
    <!-- Central dark core -->
    <radialGradient id="centerCore" cx="50%" cy="50%">
      <stop offset="0%" style="stop-color:#1e293b;stop-opacity:1" />
      <stop offset="100%" style="stop-color:#0f172a;stop-opacity:1" />
    </radialGradient>
  </defs>
  
  <!-- Logo container centered -->
  <g transform="translate(100, 20)">
    
    <!-- Swirling braided strands creating circular motion -->
    <!-- Outer strands -->
    <ellipse cx="0" cy="-12" rx="7" ry="11" fill="url(#strandGrad1)" opacity="0.95" transform="rotate(-45 0 0)"/>
    <ellipse cx="8.5" cy="-8.5" rx="7" ry="11" fill="url(#strandGrad2)" opacity="0.95" transform="rotate(-20 0 0)"/>
    <ellipse cx="12" cy="0" rx="7" ry="11" fill="url(#strandGrad3)" opacity="0.95"/>
    <ellipse cx="8.5" cy="8.5" rx="7" ry="11" fill="url(#strandGrad2)" opacity="0.95" transform="rotate(20 0 0)"/>
    <ellipse cx="0" cy="12" rx="7" ry="11" fill="url(#strandGrad1)" opacity="0.95" transform="rotate(45 0 0)"/>
    <ellipse cx="-8.5" cy="8.5" rx="7" ry="11" fill="url(#strandGrad2)" opacity="0.95" transform="rotate(70 0 0)"/>
    <ellipse cx="-12" cy="0" rx="7" ry="11" fill="url(#strandGrad3)" opacity="0.95"/>
    <ellipse cx="-8.5" cy="-8.5" rx="7" ry="11" fill="url(#strandGrad2)" opacity="0.95" transform="rotate(-70 0 0)"/>
    
    <!-- Middle layer strands -->
    <ellipse cx="0" cy="-8" rx="6" ry="9" fill="url(#strandGrad2)" opacity="0.85" transform="rotate(-30 0 0)"/>
    <ellipse cx="6.9" cy="-4" rx="6" ry="9" fill="url(#strandGrad3)" opacity="0.85" transform="rotate(-10 0 0)"/>
    <ellipse cx="8" cy="0" rx="6" ry="9" fill="url(#strandGrad2)" opacity="0.85"/>
    <ellipse cx="6.9" cy="4" rx="6" ry="9" fill="url(#strandGrad3)" opacity="0.85" transform="rotate(10 0 0)"/>
    <ellipse cx="0" cy="8" rx="6" ry="9" fill="url(#strandGrad2)" opacity="0.85" transform="rotate(30 0 0)"/>
    <ellipse cx="-6.9" cy="4" rx="6" ry="9" fill="url(#strandGrad3)" opacity="0.85" transform="rotate(50 0 0)"/>
    <ellipse cx="-8" cy="0" rx="6" ry="9" fill="url(#strandGrad2)" opacity="0.85"/>
    <ellipse cx="-6.9" cy="-4" rx="6" ry="9" fill="url(#strandGrad3)" opacity="0.85" transform="rotate(-50 0 0)"/>
    
    <!-- Highlights on strands for metallic glossy effect -->
    <ellipse cx="2" cy="-10" rx="4" ry="6" fill="url(#strandHighlight)" opacity="0.6" transform="rotate(-45 0 0)"/>
    <ellipse cx="6" cy="-6" rx="4" ry="6" fill="url(#strandHighlight)" opacity="0.6" transform="rotate(-20 0 0)"/>
    <ellipse cx="8" cy="2" rx="4" ry="6" fill="url(#strandHighlight)" opacity="0.6"/>
    <ellipse cx="6" cy="6" rx="4" ry="6" fill="url(#strandHighlight)" opacity="0.6" transform="rotate(20 0 0)"/>
    <ellipse cx="-2" cy="10" rx="4" ry="6" fill="url(#strandHighlight)" opacity="0.6" transform="rotate(45 0 0)"/>
    
    <!-- Dark central core with glowing white E -->
    <circle cx="0" cy="0" r="10" fill="url(#centerCore)"/>
    <circle cx="0" cy="0" r="8" fill="#0f172a"/>
    <text x="0" y="4" font-family="Arial, sans-serif" font-size="14" font-weight="bold" fill="#f8fafc" text-anchor="middle" style="filter: drop-shadow(0 0 2px rgba(248, 250, 252, 0.8));">E</text>
    
  </g>
  
  <!-- EDUCORE AI text below logo (white with outline) -->
  <text x="100" y="55" font-family="Arial, sans-serif" font-size="13" font-weight="600" fill="#f8fafc" text-anchor="middle" letter-spacing="2px" stroke="#94a3b8" stroke-width="0.3" opacity="0.9">
    EDUCORE AI
  </text>
</svg>
